<svg xmlns="http://www.w3.org/2000/svg" width="29" height="29"><defs><clipPath id="a"><path data-name="Rectangle 331" transform="translate(901.55 734.55)" fill="#e00035" d="M0 0h29v29H0z"/></clipPath></defs><g transform="translate(-901.55 -734.55)" clip-path="url(#a)"><path d="M930.55 762.751v-8.8c0-4.335-.6-7.516-2.6-9.793-2.049-2.32-5.183-3.323-10.108-3.114h-4.373v-3.929a1.317 1.317 0 00-.527-1.108c-.818-.546-1.626.1-2.214.625-1.697 1.512-7.286 5.808-8.234 6.631a1.3 1.3 0 000 2.035c.929.785 6.322 4.9 8.067 6.48.618.555 1.494 1.368 2.381.778a1.319 1.319 0 00.527-1.111v-4.426h4.5c3.02-.139 4.712.211 5.495 1.1.85.967 1.106 2.934 1.106 5.843v8.785z" fill="#e00035"/></g></svg>