<svg xmlns="http://www.w3.org/2000/svg" width="102" height="102"><defs><clipPath id="a"><path data-name="Rectangle 306" transform="translate(107.022 75.407)" fill="#fff" d="M0 0h102v102H0z"/></clipPath><clipPath id="b"><path data-name="Rectangle 306" transform="translate(1496 8.5)" fill="#fff" d="M0 0h102v102H0z"/></clipPath><clipPath id="c"><path data-name="Rectangle 7" transform="translate(4161.6 766.133)" fill="#fff" d="M0 0h102v102H0z"/></clipPath></defs><g data-name="Change password" transform="translate(-107.022 -75.407)" clip-path="url(#a)"><g data-name="Change password" transform="translate(-1388.978 66.907)" clip-path="url(#b)"><g transform="translate(-2665.6 -757.633)" clip-path="url(#c)"><g data-name="Layer 2"><g data-name="Layer 1" fill="#fff"><path data-name="Path 10" d="M4210.203 766.133h4.78c1.456.266 2.921.479 4.369.822a28.294 28.294 0 0 1 21.477 24.791c.331 4.08.153 8.234.207 12.336v1.133h9.35v.85c0 8.1.04 16.2-.028 24.3a42.449 42.449 0 0 1-.584 6.437 37.785 37.785 0 0 1-28.552 30.311c-1.983.453-4.029.68-6.046 1.02h-5.164l-.85-.179a68.216 68.216 0 0 1-8.041-1.669 37.729 37.729 0 0 1-26.309-36.439v-24.67h9.35v-1.385c.051-4.015-.125-8.049.2-12.042a28.2 28.2 0 0 1 20.234-24.432c1.836-.518 3.734-.796 5.607-1.184Zm24.849 39c0-3.244.028-6.389 0-9.54a28.7 28.7 0 0 0-.267-4.46 22.412 22.412 0 0 0-44.407.782c-.365 4.318-.159 8.687-.21 13.033 0 .057.057.11.108.207Zm-19.494 44.813c0-2.876.028-5.593-.017-8.313a1.207 1.207 0 0 1 .907-1.36 10.557 10.557 0 0 0 7.027-9.52 10.922 10.922 0 1 0-16.463 8.709c.85.51 2.1.773 2.493 1.51a7.452 7.452 0 0 1 .108 3.134v4.873c0 .283.034.567.062.949h5.893Z"/><path data-name="Path 11" d="M4217.556 830.124a4.967 4.967 0 1 1-1.417-3.542 4.967 4.967 0 0 1 1.417 3.542Z"/></g></g></g></g></g></svg>