<svg xmlns="http://www.w3.org/2000/svg" width="33" height="33"><defs><clipPath id="a"><path data-name="Rectangle 328" transform="translate(1039 4677)" fill="#fff" d="M0 0h33v33H0z"/></clipPath></defs><g transform="translate(-1039 -4677)" clip-path="url(#a)"><path d="M1055.252 4686.153a2.054 2.054 0 01-2.9-2.9l3.49-3.476a9.5 9.5 0 0113.4 0l.019.021a9.495 9.495 0 01-.019 13.377l-3.49 3.476a2.054 2.054 0 11-2.9-2.9l3.49-3.49a5.39 5.39 0 000-7.578l-.03-.03a5.39 5.39 0 00-7.57.019l-3.476 3.49zm3.758.848a2.054 2.054 0 012.89 2.906l-10 10a2.054 2.054 0 01-2.9-2.9l10-10zm-3.34 13.906a2.054 2.054 0 012.9 2.9l-3.409 3.412a9.495 9.495 0 01-13.358.038l-.075-.072a9.5 9.5 0 01.035-13.363l3.409-3.4a2.054 2.054 0 112.907 2.894l-3.409 3.419a5.393 5.393 0 000 7.584 5.388 5.388 0 007.589 0z" fill="#fff"/></g></svg>