<svg xmlns="http://www.w3.org/2000/svg" width="33" height="33"><defs><clipPath id="a"><path data-name="Rectangle 328" fill="#fff" d="M0 0h33v33H0z"/></clipPath></defs><g data-name="Layer 2" clip-path="url(#a)"><g data-name="Layer 1" fill="#fff"><path data-name="Path 842" d="M24.75 33H8.249a.337.337 0 00-.081-.044 2.869 2.869 0 01-2.444-2.689c-.171-1.838-.31-3.679-.463-5.519l-.555-6.643q-.247-2.968-.492-5.937c-.068-.822-.132-1.642-.2-2.481h24.953a.55.55 0 01.014.1q-.345 4.25-.7 8.506-.484 5.81-.959 11.621a3.327 3.327 0 01-.905 2.242A3.493 3.493 0 0124.75 33zm-12.114-4.782c-.061-1.02-.107-1.8-.156-2.582q-.242-3.983-.495-7.968l-.323-5.141a.925.925 0 00-.508-.807.958.958 0 00-1.414.892c.023.836.093 1.671.144 2.507q.242 3.92.491 7.84l.323 5.241a.97.97 0 001.938.023zm10.63-15.553a.962.962 0 00-.905-1.056.986.986 0 00-1.025.943c-.112 1.768-.217 3.536-.328 5.3q-.211 3.376-.425 6.751c-.073 1.168-.154 2.335-.208 3.5a.949.949 0 00.936 1.022.968.968 0 00.989-.94c.026-.353.044-.707.066-1.06l.411-6.655c.159-2.57.321-5.137.489-7.806zm-5.8 7.7v-7.534c0-.772-.356-1.223-.968-1.223s-.968.45-.968 1.223v15.078a2.856 2.856 0 00.006.323.937.937 0 00.646.842.964.964 0 001.28-1q.009-3.855.004-7.705z"/><path data-name="Path 843" d="M9.731 3.874v-.859A2.913 2.913 0 0112.745.006q3.755-.013 7.505 0a2.91 2.91 0 013.014 3v.86h5.693a1.938 1.938 0 011.964 1.41 1.918 1.918 0 01-1.458 2.4 2.858 2.858 0 01-.575.051H4.105a1.945 1.945 0 01-1.986-1.271 1.923 1.923 0 011.886-2.582c1.783-.012 3.566 0 5.349 0zm1.937-.017h9.668c0-.314.006-.612 0-.909a.979.979 0 00-1.025-1.01c-.353-.006-.708 0-1.062 0h-6.5a.98.98 0 00-1.083 1.075v.841z"/></g></g></svg>