<svg xmlns="http://www.w3.org/2000/svg" width="36" height="36"><defs><clipPath id="a"><path data-name="Rectangle 306" transform="translate(0 3)" fill="#fff" d="M0 0h36v36H0z"/></clipPath><clipPath id="b"><path data-name="Rectangle 4" transform="translate(77.4 1859.4)" fill="#fff" d="M0 0h36v36H0z"/></clipPath></defs><g transform="translate(0 -3)" clip-path="url(#a)"><g data-name="fav" transform="translate(-77.4 -1856.4)" clip-path="url(#b)"><path d="M102.906 1861.074a10.381 10.381 0 00-4.768 1.143 10.577 10.577 0 00-2.738 2.018 10.577 10.577 0 00-2.738-2.018 10.382 10.382 0 00-4.768-1.143 10.507 10.507 0 00-10.494 10.494c0 4.1 2.16 8.46 6.433 12.938a62.214 62.214 0 0010.967 8.829l.6.391.6-.391a62.21 62.21 0 0010.962-8.829c4.278-4.485 6.438-8.839 6.438-12.938a10.507 10.507 0 00-10.494-10.494z" fill="#fff"/></g></g></svg>