<svg xmlns="http://www.w3.org/2000/svg" width="20" height="20"><defs><clipPath id="a"><path data-name="Rectangle 4" transform="translate(43 1033)" fill="#d4d4d4" d="M0 0h20v20H0z"/></clipPath></defs><g transform="translate(-43 -1033)" clip-path="url(#a)"><path d="M57.17 1033.93a5.767 5.767 0 00-2.649.635 5.876 5.876 0 00-1.521 1.121 5.876 5.876 0 00-1.521-1.121 5.768 5.768 0 00-2.649-.635 5.837 5.837 0 00-5.83 5.83c0 2.277 1.2 4.7 3.574 7.188a34.563 34.563 0 006.09 4.905l.336.217.336-.217a34.561 34.561 0 006.09-4.905c2.374-2.492 3.574-4.911 3.574-7.188a5.837 5.837 0 00-5.83-5.83z" fill="red"/></g></svg>