<svg xmlns="http://www.w3.org/2000/svg" width="106" height="106"><defs><clipPath id="a"><path data-name="Rectangle 300" transform="translate(907 591)" fill="#fff" d="M0 0h106v106H0z"/></clipPath></defs><g data-name="tv live" transform="translate(-907 -591)" clip-path="url(#a)"><g data-name="Layer 2"><g data-name="Layer 1" fill="#fff"><path data-name="Path 812" d="M1000.706 672.35c1.46 1.95 2.759 3.693 4.064 5.434l1.7 2.287c.492.662.566 1.339-.153 1.854a1.19 1.19 0 01-1.828-.391q-3.034-4.067-6.076-8.131c-.1-.142-.224-.269-.422-.5l-4.131 3.273c-.331.263-.654.541-1 .787a1.144 1.144 0 01-1.7-.136 1.177 1.177 0 01.178-1.772c.889-.753 1.811-1.466 2.717-2.2.125-.1.235-.218.475-.444h-69.1c.8.659 1.466 1.2 2.128 1.738.3.246.6.49.908.727.668.518.976 1.132.444 1.913-.444.642-1.2.628-2.032-.025-1.3-1.027-2.592-2.074-3.889-3.113-.3-.238-.611-.461-1-.75-.623.815-1.22 1.588-1.806 2.369q-2.321 3.088-4.636 6.184c-.515.7-1.149 1-1.893.458s-.591-1.262-.079-1.941q2.485-3.3 4.953-6.608c.2-.269.385-.566.662-.957-.478-.025-.815-.057-1.149-.057h-9.204c-1.478.001-1.837-.348-1.837-1.782v-63.02c0-1.432.314-1.752 1.732-1.752h102.542c1.415 0 1.726.323 1.726 1.755v63.02c0 1.415-.362 1.774-1.842 1.777-3.388.005-6.776.003-10.452.003zM960 667.411h45.973c1.871 0 2.12-.255 2.12-2.154v-52.421c0-1.9-.221-2.123-2.128-2.123h-91.938c-1.893 0-2.12.226-2.12 2.131v52.314c0 2.04.209 2.264 2.236 2.264z"/><path data-name="Path 813" d="M914.466 664.887V613.23h91.071v51.657zm45.541-9.832a16.015 16.015 0 10-16.044-16 16.015 16.015 0 0016.044 16z"/><path data-name="Path 814" d="M973.557 639.105a18.725 18.725 0 110-.011zm-18.469-.045c0 2.329-.037 4.658.028 6.985a1.819 1.819 0 00.631 1.4 1.826 1.826 0 001.531-.2c3.521-2.284 7-4.621 10.488-6.959 1.172-.79 1.163-1.678-.025-2.476-3.453-2.321-6.905-4.641-10.4-6.9a1.959 1.959 0 00-1.607-.232c-.357.164-.608.906-.62 1.415-.065 2.312-.028 4.641-.028 6.97z"/><path data-name="Path 815" d="M957.565 644.134v-10.146l7.621 5.063z"/></g></g></g></svg>