<svg xmlns="http://www.w3.org/2000/svg" width="26" height="26"><defs><clipPath id="a"><path data-name="Rectangle 319" transform="translate(106.956 75.407)" fill="#fff" d="M0 0h26v26H0z"/></clipPath><clipPath id="b"><path data-name="Rectangle 306" fill="#fff" d="M0 0h26v26H0z"/></clipPath></defs><g data-name="Lock categories" transform="translate(-106.956 -75.407)" clip-path="url(#a)"><g data-name="Lock categories" transform="translate(106.956 75.407)" clip-path="url(#b)"><g clip-path="url(#b)"><g data-name="Layer 2"><g data-name="Layer 1" fill="#fff"><path data-name="Path 3" d="M19.709 8.684h1.415a2.584 2.584 0 012.591 2.591v12.851a1.708 1.708 0 01-1.708 1.708H4.081a1.793 1.793 0 01-1.793-1.793V11.643a2.956 2.956 0 012.956-2.959h1.045a.509.509 0 00.508-.515v-1.8a6.2 6.2 0 0112.4 0v1.808a.509.509 0 00.514.511zm-.624 4.175H6.941a.508.508 0 00-.508.508v7.817a.509.509 0 00.508.509h12.145a.509.509 0 00.508-.509v-7.8a.508.508 0 00-.512-.515zm-4.525-4.2a.509.509 0 00.509-.508c0-.657.022-1.312-.01-1.965a2.07 2.07 0 00-4.091-.159 21.2 21.2 0 00-.021 2.14.508.508 0 00.508.5z"/><path data-name="Path 4" d="M20.942 11.96V22.6H5.083V11.96z"/></g></g></g></g></g></svg>