<svg xmlns="http://www.w3.org/2000/svg" width="102" height="102"><defs><clipPath id="a"><path data-name="Rectangle 306" transform="translate(106.956 75.407)" fill="#fff" d="M0 0h102v102H0z"/></clipPath><clipPath id="b"><path data-name="Rectangle 306" transform="translate(1496 8.5)" fill="#fff" d="M0 0h102v102H0z"/></clipPath><clipPath id="c"><path data-name="Rectangle 1" transform="translate(4177.467 340)" fill="#fff" d="M0 0h102v102H0z"/></clipPath></defs><g data-name="Lock categories" transform="translate(-106.956 -75.407)" clip-path="url(#a)"><g data-name="Lock categories" transform="translate(-1389.044 66.907)" clip-path="url(#b)"><g transform="translate(-2681.467 -331.5)" clip-path="url(#c)"><g data-name="Layer 2"><g data-name="Layer 1" fill="#fff"><path data-name="Path 2" d="M4226.668 340h3.576a24.65 24.65 0 019.852 4.174 55.862 55.862 0 0020.536 8.667 12.467 12.467 0 0110.427 12.9c-.184 7.531-.026 15.068-.051 22.6a48.184 48.184 0 01-.283 5.363 46.977 46.977 0 01-9.673 23.109 79.965 79.965 0 01-22.81 20.008c-3.117 1.879-6.374 3.451-9.585 5.179h-.4a4.032 4.032 0 00-.493-.312 85.53 85.53 0 01-14.665-8.5 72.584 72.584 0 01-20.372-20.964 43.135 43.135 0 01-6.774-22c-.147-8.551-.085-17.124-.023-25.682a11.645 11.645 0 019.288-11.4 65.62 65.62 0 0022.706-9.629 25.387 25.387 0 014.174-2.266 39.559 39.559 0 014.57-1.247zm36.4 37.842V364.9a3.93 3.93 0 00-3.173-4.021c-.739-.181-1.487-.312-2.227-.482A70.921 70.921 0 014234.414 350a9.866 9.866 0 00-11.928.025 69.49 69.49 0 01-25.2 10.795 3.967 3.967 0 00-3.418 4.32v23.8a35.346 35.346 0 00.283 4.454 38.358 38.358 0 007.917 18.431 76.871 76.871 0 0025.926 21.091 1.417 1.417 0 001.156-.1c2.493-1.416 5.026-2.816 7.438-4.391a69.624 69.624 0 0018.773-17.266 37.457 37.457 0 007.707-21.97c.031-3.771 0-7.565 0-11.35z"/><path data-name="Path 3" d="M4241.379 375.062h2.72a4.973 4.973 0 014.986 4.987v24.735a3.287 3.287 0 01-3.287 3.287h-34.5a3.451 3.451 0 01-3.451-3.451v-23.863a5.689 5.689 0 015.689-5.695h2.012a.98.98 0 00.977-.992v-3.473a11.931 11.931 0 1123.862 0v3.479a.98.98 0 00.989.983zm-1.2 8.035h-23.374a.978.978 0 00-.978.978v15.045a.98.98 0 00.978.98h23.38a.98.98 0 00.977-.98v-15.016a.977.977 0 00-.986-.992zm-8.71-8.081a.98.98 0 00.98-.978c0-1.264.043-2.524-.02-3.782a3.984 3.984 0 00-7.874-.306 40.8 40.8 0 00-.04 4.12.978.978 0 00.978.96z"/><path data-name="Path 4" d="M4243.753 381.364v20.476h-30.524v-20.476z"/></g></g></g></g></g></svg>