<svg xmlns="http://www.w3.org/2000/svg" width="102" height="102"><defs><clipPath id="a"><path data-name="Rectangle 306" transform="translate(107.088 75.407)" fill="#fff" d="M0 0h102v102H0z"/></clipPath><clipPath id="b"><path data-name="Rectangle 306" transform="translate(1496 8.5)" fill="#fff" d="M0 0h102v102H0z"/></clipPath><clipPath id="c"><path data-name="Rectangle 4" transform="translate(4161.6 1656.933)" fill="#fff" d="M0 0h102v102H0z"/></clipPath></defs><g transform="translate(-107.088 -75.407)" clip-path="url(#a)"><g data-name="Logout" transform="translate(-1388.912 66.907)" clip-path="url(#b)"><g data-name="logout" transform="translate(-2665.6 -1648.433)" clip-path="url(#c)"><g data-name="Layer 2"><g data-name="Layer 1" fill="#fff"><path data-name="Path 8" d="M4263.603 1710.93c-.258 1.867-.431 3.754-.791 5.593a48.028 48.028 0 0 1-19.266 30.793 47.113 47.113 0 0 1-27.943 9.387 48.053 48.053 0 0 1-29.146-9.084 2.309 2.309 0 0 1-.632-3.542q3.627-5.95 7.316-11.872a2.417 2.417 0 0 1 3.967-.887 27.115 27.115 0 0 0 9.067 4.185 27.815 27.815 0 0 0 27.88-7.984 27.05 27.05 0 0 0 7.748-22.213 27.716 27.716 0 0 0-13.019-21.335 28.4 28.4 0 0 0-30.866.042c-2.87 1.881-3.53 1.751-5.349-1.2l-6.6-10.758c-1.15-1.864-.907-2.833.887-4.08a47.3 47.3 0 0 1 20.222-8.183 47.288 47.288 0 0 1 33.057 6.516 48.053 48.053 0 0 1 22.562 32.354c.366 1.782.487 3.615.731 5.423.04.283.116.567.176.85Z"/><path data-name="Path 9" d="M4187.233 1699.94h31.7a7.99 7.99 0 0 1 1.207 15.929c-.567.057-1.133.057-1.7.057h-31.2c.227.368.36.638.53.887a770.585 770.585 0 0 0 4.422 6.627 2.516 2.516 0 0 1 .4 2.782 2.55 2.55 0 0 1-2.55 1.227h-14.25a2.9 2.9 0 0 1-2.655-1.417q-5.44-8.216-10.945-16.392a2.72 2.72 0 0 1 0-3.4q5.511-8.181 10.94-16.415a2.913 2.913 0 0 1 2.671-1.417c4.735.026 9.5 0 14.252 0a2.388 2.388 0 0 1 2.136 4.018c-1.468 2.151-2.913 4.358-4.369 6.542-.181.292-.337.561-.589.972Z"/></g></g></g></g></g></svg>