<svg xmlns="http://www.w3.org/2000/svg" width="99.093" height="51.166"><path data-name="Path 805" d="M51.794 44.042a25.116 25.116 0 01-9.017-1.643 18.934 18.934 0 01-7.155-4.832l4.7-6.089a21.15 21.15 0 005.4 3.87 13.367 13.367 0 005.195 1.16 10.545 10.545 0 004.7-.966 3.628 3.628 0 002.058-3.479 3.571 3.571 0 00-1.372-3 10.071 10.071 0 00-3.528-1.836q-2.153-.779-4.509-1.451a16.289 16.289 0 01-8.037-4.828 11.169 11.169 0 01-2.647-7.35 12.042 12.042 0 011.666-6.089 13.016 13.016 0 015-4.929A17.613 17.613 0 0152.971.648a28.251 28.251 0 018.135 1.063 20.51 20.51 0 016.567 3.383l-4.215 6.475a11.978 11.978 0 00-4.215-2.513 13.176 13.176 0 00-4.313-1.063 7.359 7.359 0 00-4.408 1.063 3.546 3.546 0 00-1.766 3.092 3.588 3.588 0 001.274 3.093 11.112 11.112 0 003.725 1.836q2.254.676 4.509 1.45a19.742 19.742 0 017.449 4.156 9.306 9.306 0 012.94 7.345 13.555 13.555 0 01-1.862 6.958 13.408 13.408 0 01-5.587 5.122 20.327 20.327 0 01-9.41 1.934z" fill="#fff"/><path data-name="Path 806" d="M37.212 51.166h-9.4l-4.958-7.495a5.463 5.463 0 01-.778.058h-.692a20.518 20.518 0 01-5.678-.784 21.612 21.612 0 01-5.1-2.15 22.441 22.441 0 01-7.7-7.756 22.9 22.9 0 01-2.157-5.142 22.226 22.226 0 010-11.446 22.171 22.171 0 012.162-5.142 22.342 22.342 0 013.373-4.361 21.359 21.359 0 014.324-3.37 21.61 21.61 0 015.1-2.15 20.946 20.946 0 0111.357 0 20.956 20.956 0 015.1 2.15 21.363 21.363 0 019.8 12.869 21.281 21.281 0 01-.086 11.707 21.215 21.215 0 01-6.168 9.964 21.156 21.156 0 01-4.9 3.4zm-2.681-28.992a12.868 12.868 0 00-1.038-5.142 13.335 13.335 0 00-7-7.059 13.038 13.038 0 00-10.233 0 13.37 13.37 0 00-4.18 2.847 13.053 13.053 0 00-2.825 4.212 13.258 13.258 0 000 10.284 13.581 13.581 0 002.825 4.183 13.371 13.371 0 004.18 2.847 13.038 13.038 0 0010.233 0 12.943 12.943 0 004.18-2.847 13.581 13.581 0 002.825-4.183 12.868 12.868 0 001.033-5.142z" fill="#fff"/><path data-name="Path 807" d="M77.073 4.3a4.3 4.3 0 014.3-4.3H94.8a4.3 4.3 0 014.3 4.3v35.445a4.3 4.3 0 01-4.3 4.3H81.373a4.3 4.3 0 01-4.3-4.3z" fill="#e00035"/><path data-name="Path 808" d="M83.549 36.269v-1.854h8.021v-4.429h1.885v6.28z" fill="#fff"/><path data-name="Path 809" d="M83.549 28.075V26.22h9.905v1.855z" fill="#fff"/><path data-name="Path 810" d="M83.549 22.371l5.585-2.149-5.585-2.021v-2.2l10.363 4.295-10.363 4.3z" fill="#fff"/><path data-name="Path 811" d="M83.549 14.372V7.951h1.884v4.566h2.116V8.472h1.885v4.042h2.139V7.772h1.885v6.6z" fill="#fff"/></svg>