<svg xmlns="http://www.w3.org/2000/svg" width="106" height="106"><defs><clipPath id="a"><path data-name="Rectangle 300" transform="translate(907 591)" fill="#b6012c" d="M0 0h106v106H0z"/></clipPath></defs><g transform="translate(-907 -591)" clip-path="url(#a)"><g data-name="Layer 2"><g data-name="Layer 1" fill="#b6012c"><path data-name="Path 816" d="M928.727 607.239h62.564v-3.056a28.984 28.984 0 01.084-3.093 5.015 5.015 0 014.883-4.507q5.925-.084 11.855 0a5.09 5.09 0 014.887 4.856v84.181c0 3.036-1.405 5.064-3.977 5.7a7.07 7.07 0 01-1.586.15h-10.574c-3.46 0-5.559-2.125-5.6-5.6v-2.5h-62.532v2.444c-.044 3.535-2.134 5.643-5.66 5.656s-6.977 0-10.468 0-5.603-2.116-5.603-5.589v-83.735c0-3.464 2.125-5.572 5.6-5.607s7.07 0 10.57 0a5.221 5.221 0 015.55 5.462c.038 1.705.007 3.415.007 5.238zm.071 3.447v69.2h62.427v-69.207zm-10.941-6.357c-.817 0-1.639-.035-2.452 0a1.654 1.654 0 00-1.746 1.635 1.679 1.679 0 001.8 1.688q2.4.053 4.8 0a1.612 1.612 0 001.767-1.692 1.629 1.629 0 00-1.737-1.639c-.797-.027-1.615.008-2.432.008zm84.22 3.345h2.452a1.69 1.69 0 001.834-1.661 1.664 1.664 0 00-1.82-1.674c-1.6-.035-3.2-.04-4.794 0a1.667 1.667 0 100 3.327c.764.035 1.547 0 2.329.009zm.062 10.865h2.561a1.673 1.673 0 001.666-1.723 1.608 1.608 0 00-1.67-1.591 99.66 99.66 0 00-5.011 0 1.6 1.6 0 00-1.706 1.644 1.617 1.617 0 001.71 1.657c.817.049 1.635.013 2.452.013zm-84.3 65.185c.817 0 1.635.027 2.452 0a1.663 1.663 0 001.767-1.622 1.641 1.641 0 00-1.767-1.706c-1.63-.04-3.27-.044-4.9 0a1.617 1.617 0 00-1.71 1.661 1.65 1.65 0 001.719 1.654c.8.04 1.622.004 2.439.009zm84.353 0h2.461a1.679 1.679 0 001.719-1.67 1.622 1.622 0 00-1.719-1.657 86.075 86.075 0 00-4.9 0 1.667 1.667 0 100 3.327c.8.022 1.621-.004 2.439-.004zm-84.26-68.52h-2.453a1.667 1.667 0 10.009 3.318c1.6.031 3.2.04 4.794 0a1.631 1.631 0 001.767-1.714 1.6 1.6 0 00-1.767-1.6c-.782-.027-1.568-.004-2.35-.004zm-.044 57.635c.817 0 1.635.031 2.448 0a1.63 1.63 0 001.71-1.657 1.56 1.56 0 00-1.608-1.639 76.432 76.432 0 00-5.112 0 1.6 1.6 0 00-1.666 1.67 1.663 1.663 0 001.767 1.6c.822.049 1.644.022 2.461.022zm84.211 0c.853 0 1.706.031 2.558 0a1.648 1.648 0 001.706-1.67 1.591 1.591 0 00-1.63-1.626q-2.558-.084-5.117 0a1.577 1.577 0 00-1.639 1.714 1.626 1.626 0 001.67 1.586c.817.026 1.635 0 2.452 0zm-84.317-43.474h2.474a1.94 1.94 0 00.318-.031 1.584 1.584 0 001.485-1.767 1.524 1.524 0 00-1.6-1.524c-1.7-.044-3.411-.035-5.112 0a1.635 1.635 0 00-.093 3.265 19.291 19.291 0 002.528.057zm84.318-3.291h-2.343a1.614 1.614 0 00-1.767 1.577 1.569 1.569 0 001.639 1.706c1.67.062 3.341.057 5.006 0a1.651 1.651 0 10-.071-3.292c-.831-.009-1.648.009-2.461.009zm-84.226 32.614c-.853 0-1.706-.027-2.554 0a1.63 1.63 0 100 3.257c1.67.035 3.341.031 5.006 0a1.6 1.6 0 001.706-1.644 1.574 1.574 0 00-1.719-1.622c-.804-.018-1.621.009-2.439.009zm84.313 3.279c.848 0 1.706.031 2.554 0a1.608 1.608 0 001.622-1.628 1.564 1.564 0 00-1.608-1.622 103.92 103.92 0 00-5.117 0 1.551 1.551 0 00-1.666 1.666 1.627 1.627 0 001.767 1.6c.813 0 1.631-.013 2.448-.013zm-84.344-25.01c-.853 0-1.71-.031-2.558 0a1.6 1.6 0 00-1.626 1.613 1.573 1.573 0 001.6 1.635c1.737.044 3.482.049 5.218 0a1.533 1.533 0 001.569-1.657 1.591 1.591 0 00-1.646-1.591c-.851-.031-1.7 0-2.557 0zm84.357 3.282h2.236a1.7 1.7 0 00.212 0 1.639 1.639 0 001.714-1.648 1.613 1.613 0 00-1.71-1.63 138 138 0 00-4.9 0 1.609 1.609 0 00-1.767 1.591 1.627 1.627 0 001.768 1.687c.813.045 1.63 0 2.447 0zm-84.308 10.849h2.448a1.617 1.617 0 001.71-1.649 1.585 1.585 0 00-1.723-1.622c-1.67-.031-3.341-.035-5.006 0a1.591 1.591 0 00-1.661 1.684 1.613 1.613 0 001.675 1.569c.851.04 1.704.018 2.557.018zm84.123 0h2.651a1.64 1.64 0 001.688-1.675 1.586 1.586 0 00-1.654-1.586c-1.706-.035-3.411-.04-5.112 0a1.56 1.56 0 00-1.625 1.612 1.608 1.608 0 001.7 1.648c.787.027 1.569 0 2.337.009z"/><path data-name="Path 817" d="M985.48 645.405v22.534c0 3.977-2.231 6.235-6.186 6.235h-38.557c-3.977 0-6.186-2.24-6.186-6.23v-45.277c0-3.977 2.209-6.239 6.186-6.239h38.548c3.977 0 6.186 2.249 6.186 6.235q.018 11.369.009 22.742zm-34.669-.128v8.862a3.379 3.379 0 001.794 3.265 3.316 3.316 0 003.712-.331c4.131-2.965 8.289-5.9 12.4-8.886a3.36 3.36 0 00-.031-5.806c-4.092-2.961-8.219-5.872-12.324-8.811a3.357 3.357 0 00-3.707-.393 3.433 3.433 0 00-1.847 3.345c.018 2.916 0 5.837 0 8.753z"/></g></g></g></svg>