<svg xmlns="http://www.w3.org/2000/svg" width="102" height="102"><defs><clipPath id="a"><path data-name="Rectangle 306" transform="translate(-.362 -.05)" fill="#fff" d="M0 0h102v102H0z"/></clipPath></defs><g data-name="Change Player" transform="translate(.362 .05)" clip-path="url(#a)"><g clip-path="url(#a)"><g data-name="Layer 2"><g data-name="Layer 1" fill="#fff"><path data-name="Path 15" d="M-1.075 63.908V8.755c.037-.053.1-.1.113-.161A11.183 11.183 0 0 1 11.164-.979H91.44a10.523 10.523 0 0 1 9.285 4.845 28.987 28.987 0 0 1 2.019 4.889v55.153Zm28.592-32.5v19.767a3.105 3.105 0 0 0 4.8 3.11q10.827-4.91 21.65-9.844c7.3-3.32 14.627-6.621 21.9-10a4.658 4.658 0 0 0 2.035-1.823c.865-1.587-.03-3.271-2.012-4.171L32.332 8.662a3.105 3.105 0 0 0-4.815 3.087q-.007 9.839 0 19.664Z"/><path data-name="Path 16" d="M102.745 69.999V92.71c-.042.053-.1.1-.115.162a11.162 11.162 0 0 1-12.124 9.57H26.264c-5.373 0-10.744.062-16.11-.018A10.825 10.825 0 0 1-.099 95.767a23.281 23.281 0 0 1-.976-3.057V69.999Zm-40.758 13.18H14.225a3.034 3.034 0 0 0-.489 6 6.612 6.612 0 0 0 1.31.067h46.94v2.669a3.059 3.059 0 1 0 6.084.044v-2.7h18.919a3.2 3.2 0 0 0 2.554-.992 2.859 2.859 0 0 0 .586-3.2 2.965 2.965 0 0 0-2.955-1.892h-19.1c0-1.05.014-1.989 0-2.928a3.038 3.038 0 1 0-6.072-.032c-.031.939-.015 1.889-.015 2.964Z"/></g></g></g></g></svg>