<svg xmlns="http://www.w3.org/2000/svg" width="42" height="42"><defs><clipPath id="a"><path data-name="Rectangle 325" transform="translate(30 35)" fill="#fff" d="M0 0h42v42H0z"/></clipPath></defs><g transform="translate(-30 -35)" clip-path="url(#a)"><g data-name="Layer 2"><g data-name="Layer 1" fill="#fff"><path data-name="Path 836" d="M35.999 56V38.283a3.02 3.02 0 013.3-3.283h11.439c1.208 0 1.761.562 1.761 1.787v6.89a4.516 4.516 0 004.8 4.82h6.938a1.543 1.543 0 011.762 1.74v23.534A3.008 3.008 0 0162.787 77h-23.58a3 3 0 01-3.208-3.229z"/><path data-name="Path 837" d="M60.237 45.5h-3.138a1.494 1.494 0 01-1.594-1.58q-.011-3.233 0-6.467a1.547 1.547 0 01.178-.486 1.492 1.492 0 01.477.209q3.856 3.832 7.689 7.686c.105.105.218.359.168.427a.64.64 0 01-.457.2c-1.106.02-2.214.011-3.323.011z"/></g></g></g></svg>