<svg xmlns="http://www.w3.org/2000/svg" width="106" height="106"><defs><clipPath id="a"><path data-name="Rectangle 300" transform="translate(907 591)" fill="#b6012c" d="M0 0h106v106H0z"/></clipPath></defs><g transform="translate(-907 -591)" clip-path="url(#a)"><g data-name="Layer 2"><g data-name="Layer 1" fill="#b6012c"><path data-name="Path 826" d="M907 651.838a39.687 39.687 0 0 1 1.713-5.7c2.916-6.221 7.916-9.707 14.728-10.627a4.925 4.925 0 0 0 1.814-.619q32.199-19.055 64.384-38.143a5.907 5.907 0 0 1 2.074-.816 3.018 3.018 0 0 1 3.266 1.993 3.167 3.167 0 0 1-.938 3.647 9 9 0 0 1-1.117.744l-54.49 32.325a2.81 2.81 0 0 0-.938.806h56.6a18.35 18.35 0 0 1 12.856 4.767 17.363 17.363 0 0 1 5.962 12.96q.174 10.547 0 21.107a18.281 18.281 0 0 1-18.544 17.817q-34.407-.062-68.808 0a18.338 18.338 0 0 1-18.391-15.868 3.258 3.258 0 0 0-.171-.593Zm96.768 12.061a15.659 15.659 0 1 0-16.231 15.484 15.705 15.705 0 0 0 16.231-15.484Zm-71.934 15.5A15.64 15.64 0 1 0 916.2 663.72a15.64 15.64 0 0 0 15.634 15.674Zm28.106-12.416c1.413 0 2.825.026 4.238 0a3.224 3.224 0 1 0-.07-6.446q-4.132-.036-8.271 0a3.224 3.224 0 1 0-.034 6.446c1.379.026 2.758 0 4.137 0Zm0 12.413c1.413 0 2.825.023 4.238 0a3.223 3.223 0 1 0-.054-6.444q-4.132-.036-8.271 0a3.224 3.224 0 1 0-.053 6.447c1.371.021 2.75 0 4.129 0Zm0-24.821h4.238a3.228 3.228 0 1 0-.052-6.454q-4.147-.036-8.271 0a3.226 3.226 0 1 0-.052 6.449c1.371.029 2.75 0 4.129.005Z"/><path data-name="Path 827" d="M978.973 663.746a9.14 9.14 0 1 1 9.127 9.183 9.219 9.219 0 0 1-9.127-9.184Z"/><path data-name="Path 828" d="M940.987 663.782a9.14 9.14 0 1 1-9.114-9.183 9.225 9.225 0 0 1 9.114 9.186Z"/></g></g></g></svg>