<svg xmlns="http://www.w3.org/2000/svg" width="40" height="40"><defs><clipPath id="a"><path data-name="Rectangle 227" transform="translate(0 -.351)" fill="#fff" d="M0 0h40v40H0z"/></clipPath></defs><g transform="translate(0 .351)" clip-path="url(#a)"><path d="M39.657 13.816 27.18 11.911 21.59.003a1.32 1.32 0 0 0-2.294 0l-5.589 11.908-12.473 1.905a1.267 1.267 0 0 0-.715 2.139l9.061 9.287-2.142 13.131a1.269 1.269 0 0 0 1.865 1.314l11.141-6.157 11.141 6.159a1.269 1.269 0 0 0 1.865-1.314l-2.143-13.131 9.061-9.288a1.269 1.269 0 0 0-.715-2.14Z" fill="#ffc107"/></g></svg>