<svg xmlns="http://www.w3.org/2000/svg" width="102" height="102"><defs><clipPath id="a"><path data-name="Rectangle 306" transform="translate(107.088 75.637)" fill="#fff" d="M0 0h102v102H0z"/></clipPath><clipPath id="b"><path data-name="Rectangle 306" transform="translate(1496 8.5)" fill="#fff" d="M0 0h102v102H0z"/></clipPath><clipPath id="c"><path data-name="Rectangle 3" transform="translate(4177.467 1439.333)" fill="#fff" d="M0 0h102v102H0z"/></clipPath></defs><g data-name="Reload list" transform="translate(-107.088 -75.637)" clip-path="url(#a)"><g data-name="Reload list" transform="translate(-1388.912 67.137)" clip-path="url(#b)"><g transform="translate(-2681.467 -1430.833)" clip-path="url(#c)"><g data-name="Layer 2"><g data-name="Layer 1"><path data-name="Path 7" d="M4225.688 1541.31c-1.734-.249-3.479-.453-5.2-.765a43.951 43.951 0 0 1-25.511-14.569 44.228 44.228 0 0 1-11.072-25.188 43.475 43.475 0 0 1 7.882-30.334 44.381 44.381 0 0 1 29.09-18.558c1.5-.283 3.012-.4 4.61-.6v-5.685c0-1.133-.045-2.267.02-3.4a2.961 2.961 0 0 1 4.626-2.384 8.712 8.712 0 0 1 .731.516l22.707 17.027c2.431 1.828 2.425 3.879-.02 5.712q-11.393 8.545-22.8 17.068a4.712 4.712 0 0 1-2.134.938 2.907 2.907 0 0 1-3.117-3.117c-.028-2.493 0-4.987 0-7.48v-1.134a26.013 26.013 0 0 0-11.668 4.188 26.973 26.973 0 0 0-7.48 37.836 26.129 26.129 0 0 0 17.075 11.446 26.452 26.452 0 0 0 27.812-12.383 26.084 26.084 0 0 0 .68-27.262 3.187 3.187 0 0 1 1.011-4.669c2.975-2.238 5.967-4.505 8.984-6.732a3 3 0 0 1 4.743.907 43.65 43.65 0 0 1 6.62 24.339 44.512 44.512 0 0 1-16.882 34.329 43.5 43.5 0 0 1-23.262 9.744c-.618.074-1.247.153-1.859.227Z" fill="#fff"/></g></g></g></g></g></svg>