<svg xmlns="http://www.w3.org/2000/svg" width="33" height="33"><defs><clipPath id="a"><path data-name="Rectangle 328" fill="#fff" d="M0 0h33v33H0z"/></clipPath></defs><g data-name="Layer 2" clip-path="url(#a)"><g data-name="Layer 1"><path data-name="Path 841" d="M33 7.468v22.235c-.018.027-.047.051-.049.078A3.831 3.831 0 0129.013 33c-8.377-.025-16.751-.008-25.127-.008A3.778 3.778 0 010 29.104V3.853A3.579 3.579 0 011.645.685 9.131 9.131 0 013.285 0h22.237a1.637 1.637 0 00.215.049 5.3 5.3 0 013.012 1.464c.923.9 1.827 1.811 2.729 2.728a5.1 5.1 0 011.262 2.14c.106.356.173.724.26 1.087zm-16.516 7.654a6.178 6.178 0 104.38 1.8 6.187 6.187 0 00-4.38-1.8zM13.73 9.611h7.085a1.041 1.041 0 001.179-1.188V5.3a1.046 1.046 0 00-1.188-1.182H6.7a1.061 1.061 0 00-1.2 1.208v3.027c0 .88.375 1.259 1.247 1.259z" fill="#fff"/></g></g></svg>