<svg xmlns="http://www.w3.org/2000/svg" width="106" height="106"><defs><clipPath id="a"><path data-name="Rectangle 300" transform="translate(907 591)" fill="#b6012c" d="M0 0h106v106H0z"/></clipPath></defs><g transform="translate(-907 -591)" clip-path="url(#a)"><g data-name="Layer 2"><g data-name="Layer 1"><path data-name="Path 818" d="M1013 612.74v62.514a11.471 11.471 0 01-1.893 4.74 10.061 10.061 0 01-8.538 4.021q-42.58-.035-85.171 0h-.723a9.724 9.724 0 01-9.646-9.958q-.046-30.056-.019-60.12a9.619 9.619 0 011.924-5.991 10.178 10.178 0 018.576-3.959q42.48.031 84.956 0a16.71 16.71 0 011.758.069 9.653 9.653 0 016.429 3.393 10.947 10.947 0 012.347 5.291zm-62.567 6.041a3.37 3.37 0 00-3.64 3.594q-.031 12.212 0 24.416c0 3.055 2.562 4.505 5.225 2.978q10.531-6.041 21.034-12.143c2.693-1.577 2.724-4.482 0-6.056q-10.488-6.095-21.027-12.135a10.111 10.111 0 00-1.592-.654zm-9.623 50.051h50.756a10.209 10.209 0 001.239-.035 3.193 3.193 0 002.836-2.839 3.132 3.132 0 00-2.2-3.436 7 7 0 00-1.843-.158h-50.757c-.812-2.72-1.751-3.686-3.482-3.644s-2.639 1.031-3.355 3.647h-6.275a3.155 3.155 0 00-3.078 1.858 3.221 3.221 0 002.951 4.6c2.166.054 4.336 0 6.487 0 .385 2.385 1.4 3.494 3.143 3.586 1.893.1 2.866-.866 3.574-3.578z" fill="#b6012c"/></g></g></g></svg>