<svg xmlns="http://www.w3.org/2000/svg" width="102" height="102"><defs><clipPath id="a"><path data-name="Rectangle 306" transform="translate(107.088 75.637)" fill="#fff" d="M0 0h102v102H0z"/></clipPath><clipPath id="b"><path data-name="Rectangle 8" transform="translate(4161.6 988.267)" fill="#fff" d="M0 0h102v102H0z"/></clipPath></defs><g transform="translate(-107.088 -75.637)" clip-path="url(#a)"><g data-name="setting" transform="translate(-4054.512 -912.629)" clip-path="url(#b)"><g data-name="Layer 2"><g data-name="Layer 1"><path data-name="Path 12" d="M4174.814 1012.295c1.639 0 3.275.05 4.914-.029a2.552 2.552 0 0 0 1.442-.635c.907-.818 1.639-1.859 2.6-2.591a2.765 2.765 0 0 0 1.015-2.761c-.265-2.89-.453-5.787-.623-8.681a4.019 4.019 0 0 1 2.149-3.973 49.33 49.33 0 0 1 11.206-4.799 4.164 4.164 0 0 1 4.551 1.292c2.067 2.267 4.141 4.522 6.276 6.716a2.774 2.774 0 0 0 1.657.68c1.054.086 2.147-.186 3.173-.027a3.3 3.3 0 0 0 3.3-1.494c1.727-2.074 3.581-4.039 5.343-6.079a4.173 4.173 0 0 1 4.614-1.409 49.971 49.971 0 0 1 11.106 4.431 4.252 4.252 0 0 1 2.367 4.209c-.118 2.981-.19 5.966-.329 8.944a2.185 2.185 0 0 0 .753 1.929c1.036.925 1.949 1.981 3 2.892a2.294 2.294 0 0 0 1.473.551c2.947-.147 5.877-.329 8.806-.605a4.406 4.406 0 0 1 4.914 2.62c1.523 3.42 2.978 6.879 4.429 10.327a4.334 4.334 0 0 1-1.41 5.17c-2.178 2.04-4.391 4.044-6.533 6.12a2.45 2.45 0 0 0-.655 1.55 12.63 12.63 0 0 0 .3 5.077c.635 1.4 2.337 2.317 3.581 3.434 1.31 1.172 2.62 2.33 3.93 3.5a3.93 3.93 0 0 1 1.278 4.1 44.755 44.755 0 0 1-4.6 11.705 4.046 4.046 0 0 1-3.987 2.119c-3.1-.12-6.208-.263-9.314-.286a3.289 3.289 0 0 0-1.766.766c-.505.381-.78 1.095-1.31 1.451a4.8 4.8 0 0 0-1.96 5.172c.329 2.421.388 4.885.521 7.333a3.8 3.8 0 0 1-2.2 3.93q-5.327 2.437-10.764 4.64a4.273 4.273 0 0 1-5.173-1.36c-1.965-2.242-4.019-4.409-6.1-6.553a2.477 2.477 0 0 0-1.557-.626 30.937 30.937 0 0 0-4.162.116 2.761 2.761 0 0 0-1.639.721c-2.04 2.185-4 4.429-5.95 6.689a4.307 4.307 0 0 1-4.724 1.464 47.716 47.716 0 0 1-11.335-4.53 3.853 3.853 0 0 1-2.11-3.729c.1-3.187.227-6.372.256-9.561a2.532 2.532 0 0 0-.68-1.539 36.746 36.746 0 0 0-3.058-3 2.294 2.294 0 0 0-1.462-.546c-3.1.147-6.2.36-9.293.587a3.971 3.971 0 0 1-4.279-2.412c-1.596-3.56-3.151-7.166-4.591-10.788a4.01 4.01 0 0 1 1.272-4.76 297.593 297.593 0 0 0 6.718-6.281 2.514 2.514 0 0 0 .635-1.559 38.778 38.778 0 0 0-.065-4.412 2.165 2.165 0 0 0-.655-1.31q-3.4-3.105-6.879-6.12a4.241 4.241 0 0 1-1.42-4.71 51.164 51.164 0 0 1 4.4-11 4.08 4.08 0 0 1 4.062-2.385c1.51.066 3.024 0 4.533 0Zm37.738 46.6a19.568 19.568 0 1 0-13.89-5.766 19.568 19.568 0 0 0 13.89 5.766Z" fill="#fff"/></g></g></g></g></svg>