<svg xmlns="http://www.w3.org/2000/svg" width="106" height="106"><defs><clipPath id="a"><path data-name="Rectangle 300" transform="translate(907 591)" fill="#b6012c" d="M0 0h106v106H0z"/></clipPath></defs><g transform="translate(-907 -591)" clip-path="url(#a)"><g data-name="Layer 2"><g data-name="Layer 1" fill="#b6012c"><path data-name="Path 819" d="M907 626.572q.723-3.807 1.447-7.593c.159-.844.317-1.688.482-2.658 2.021.349 3.984.657 5.932 1.044a1.014 1.014 0 001.339-.666c.879-1.713 1.865-3.375 2.9-5a.976.976 0 00-.086-1.412c-1.317-1.5-2.576-3.049-3.927-4.66l8.454-7.1c1.269 1.526 2.566 3 3.772 4.533a1.161 1.161 0 001.7.384 38.516 38.516 0 015.136-1.865c.818-.235 1.015-.562 1-1.336-.048-1.929 0-3.858 0-5.862h11.032c0 1.973.038 3.931-.019 5.885-.022.793.206 1.082 1 1.317a44.779 44.779 0 015.2 1.922 1.069 1.069 0 001.538-.38c1.228-1.532 2.516-3.014 3.839-4.59l8.451 7.087-4.327 5.184c1.177 2.16 2.275 4.222 3.442 6.246a1.221 1.221 0 001.015.3c1.97-.317 3.931-.669 6.027-1.041.634 3.642 1.269 7.188 1.919 10.856-2.056.365-4.051.7-6.027 1.1-.317.063-.815.371-.86.634-.4 2.284-.711 4.6-1.053 7.043l5.824 3.382-5.52 9.544-5.85-3.366c-1.929 1.532-3.807 2.995-5.618 4.508a1.007 1.007 0 00-.1.876c.669 1.951 1.386 3.883 2.116 5.91l-10.356 3.775c-.634-1.754-1.332-3.49-1.884-5.238-.317-1.021-.768-1.332-1.884-1.234a39.461 39.461 0 01-5.374-.022.9.9 0 00-1.1.733c-.634 1.888-1.361 3.753-2.094 5.751l-10.38-3.769c.8-2.221 1.567-4.34 2.316-6.414l-5.843-4.93-5.92 3.413-5.52-9.555c1.821-1.053 3.54-2.072 5.285-3.039a.973.973 0 00.549-1.3c-.428-1.9-.72-3.858-1.031-5.793-.076-.482-.13-.834-.723-.926-2.078-.317-4.149-.7-6.221-1.056zm33.6 15.021a14.1 14.1 0 00.067-28.18 14.09 14.09 0 10-.067 28.18z"/><path data-name="Path 820" d="M990.147 647.357l6.662 4.191c-.78 1.25-1.507 2.455-2.287 3.629a.785.785 0 00.1 1.152c.85.993 1.659 2.027 2.414 3.1a.867.867 0 001.2.384c1.294-.457 2.611-.847 4-1.291.815 2.512 1.605 4.958 2.427 7.49-1.415.466-2.76.876-4.07 1.374a1.177 1.177 0 00-.634.825c-.1 1.3-.051 2.617-.171 3.918a1 1 0 00.787 1.2c1.225.454 2.427.971 3.766 1.513l-2.96 7.322c-1.367-.549-2.655-1.037-3.911-1.586a.861.861 0 00-1.215.292 41.693 41.693 0 01-2.624 2.919.809.809 0 00-.181 1.145c.676 1.2 1.3 2.43 2.018 3.781l-6.979 3.712c-.679-1.269-1.345-2.484-1.957-3.715a.891.891 0 00-1.133-.574c-1.485.279-2.985.489-4.619.749-.317 1.45-.663 3.017-1.044 4.743l-7.709-1.634c.349-1.672.682-3.252 1-4.758-1.437-.952-2.8-1.862-4.206-2.719a1 1 0 00-.879.174c-1.136.831-2.221 1.716-3.4 2.624l-4.854-6.215c1.1-.863 2.148-1.738 3.252-2.538a.966.966 0 00.39-1.361 22.307 22.307 0 01-1.117-3.429 1.038 1.038 0 00-1.269-.952c-1.3.038-2.6 0-3.785 0v-7.9c1.551 0 2.922-.038 4.283.019a.94.94 0 001.094-.774 31.068 31.068 0 011.4-3.436.96.96 0 00-.317-1.389c-1.025-.86-2-1.783-3.055-2.735l5.295-5.869 3.632 3.252c1.529-.774 3.011-1.491 4.441-2.287.209-.117.317-.615.3-.917-.143-1.364-.355-2.722-.558-4.184l7.82-1.075c.19 1.383.4 2.636.527 3.9.076.761.317 1.12 1.174 1.218a25.581 25.581 0 013.524.765.864.864 0 001.167-.46c.7-1.192 1.468-2.324 2.261-3.593zM970.8 669.753a7.123 7.123 0 11.01.01z"/><path data-name="Path 821" d="M981.109 635.086l-3.661 1.193c-.634-1.96-1.288-3.877-1.954-5.888a24.745 24.745 0 012.585-.866c.907-.2 1.307-.606 1.107-1.558a4.244 4.244 0 01-.029-1.136c.124-2 .127-2-1.7-2.728l-1.745-.707 2.284-5.777c1.028.406 2 .822 2.995 1.155a1.132 1.132 0 00.968-.127c.857-.891 1.64-1.856 2.487-2.836-.568-1.079-1.161-2.2-1.8-3.4l5.469-2.944c.53.968 1.047 1.853 1.5 2.769.247.5.479.714 1.1.555a14.64 14.64 0 012.759-.412c.634-.038.825-.317.923-.857.174-.98.393-1.951.634-3.061l6.088 1.24c-.225 1.107-.479 2.138-.615 3.172a1.186 1.186 0 00.4.952c.952.657 2 1.218 3.128 1.9l3.03-2.367 3.858 4.882c-.818.634-1.586 1.317-2.42 1.9a.945.945 0 00-.358 1.38c.349.818.523 1.713.869 2.538a1.244 1.244 0 00.815.66c1.05.124 2.119.127 3.172.174v6.107c-1.129 0-2.151.044-3.172 0-.634-.038-.917.121-1.1.752-.263.888-.717 1.716-.993 2.6a1.212 1.212 0 00.2 1.015c.733.765 1.558 1.447 2.42 2.221l-4.124 4.644-2.889-2.529c-1.145.593-2.256 1.136-3.325 1.751a.99.99 0 00-.377.784c.1 1.088.27 2.17.425 3.318l-6.142.888c-.2-1.269-.393-2.516-.6-3.807l-4.181-.895c-.65 1.037-1.323 2.11-2.062 3.283l-5.3-3.248c.552-.9 1.06-1.786 1.624-2.633a.9.9 0 00-.076-1.336c-.783-.833-1.459-1.763-2.217-2.721zm21.08-7.56a7.861 7.861 0 10-2.338 5.566 7.881 7.881 0 002.338-5.566z"/></g></g></g></svg>