<svg xmlns="http://www.w3.org/2000/svg" width="26" height="26"><defs><clipPath id="a"><path data-name="Rectangle 289" fill="#fff" d="M0 0h26v26H0z"/></clipPath></defs><g data-name="Layer 2" clip-path="url(#a)"><g data-name="Layer 1" fill="#fff"><path data-name="Path 788" d="M20.242 2.291c.268-.387.507-.756.774-1.086.094-.123.264-.275.384-.261s.239.217.282.362c.315 1.086.612 2.171.912 3.257.148.539-.076.843-.637.89l-3.257.293a.3.3 0 01-.1 0c-.145-.043-.362-.051-.416-.148a.449.449 0 01.087-.405c.242-.387.514-.756.8-1.172-.507-.275-.988-.568-1.5-.8a10.765 10.765 0 00-5.564-.984 10.907 10.907 0 00-1.592 21.455c.239.058.481.1.724.163a1.041 1.041 0 01-.441 2.034 13.071 13.071 0 01-9.1-6.568 12.8 12.8 0 01-1.491-4.657 12.665 12.665 0 012.236-9A12.531 12.531 0 019.415.616a12.745 12.745 0 0110.492 1.476z"/><path data-name="Path 789" d="M11.522 9.584V5.545a.843.843 0 111.685-.033v7.161a.315.315 0 00.2.329q3.246 1.661 6.5 3.344a.846.846 0 01-.55 1.6 2.055 2.055 0 01-.279-.123q-3.677-1.893-7.339-3.781a.362.362 0 01-.224-.362c.01-1.372.007-2.74.007-4.096z"/><path data-name="Path 790" d="M21.071 20.837v-.025a1.915 1.915 0 011.487-1.574 1.028 1.028 0 01.9 1.545 4.342 4.342 0 01-.655.829.944.944 0 01-1.086.185 1 1 0 01-.648-.959z"/><path data-name="Path 791" d="M15.737 23.656a1.086 1.086 0 011.172.847 1.013 1.013 0 01-.651 1.154 5.323 5.323 0 01-1.01.228 1.013 1.013 0 01-1.086-.8 1 1 0 01.59-1.183 8.323 8.323 0 01.984-.25z"/><path data-name="Path 792" d="M25.453 16.867a7.921 7.921 0 01-.478 1.115.966.966 0 01-1.2.326 1 1 0 01-.612-1.118 5.1 5.1 0 01.362-1.028 1.01 1.01 0 011.162-.517 1.134 1.134 0 01.766 1.222z"/><path data-name="Path 793" d="M24.252 10.372a.959.959 0 01-.85-.612 7.255 7.255 0 01-.3-.832 1.028 1.028 0 01.614-1.244 1.017 1.017 0 011.3.481 4.9 4.9 0 01.362 1 1.039 1.039 0 01-1.125 1.209z"/><path data-name="Path 794" d="M23.915 12.977v-.329a1.042 1.042 0 112.084-.022v.76a1.04 1.04 0 01-2.081 0v-.402z"/><path data-name="Path 795" d="M18.998 24.477a1.042 1.042 0 01-1-.684 1.013 1.013 0 01.337-1.158 6.369 6.369 0 01.847-.521 1.02 1.02 0 011.183.228 1.046 1.046 0 01.156 1.219 2.551 2.551 0 01-1.523.916z"/></g></g></svg>