<svg xmlns="http://www.w3.org/2000/svg" width="33" height="33"><defs><clipPath id="a"><path data-name="Rectangle 328" transform="translate(1044 4677)" fill="#fff" d="M0 0h33v33H0z"/></clipPath></defs><g transform="translate(-1044 -4677)" clip-path="url(#a)"><path d="M1048.965 4692.922a2.159 2.159 0 01-4.317 0 15.841 15.841 0 0126.079-12.082v-1.681a2.159 2.159 0 114.317 0v6.806a2.148 2.148 0 01-2.148 2.146l-6.549.609a2.15 2.15 0 01-.387-4.282l2.148-.2a11.545 11.545 0 00-19.143 8.684zm6.114 5.262a2.159 2.159 0 01.387 4.3l-2.706.244a11.532 11.532 0 0019.275-8.568 2.159 2.159 0 114.317 0 15.841 15.841 0 01-25.717 12.385v1.122a2.159 2.159 0 01-4.317 0v-6.723a2.148 2.148 0 011.957-2.148l6.8-.618z" fill="#fff"/></g></svg>