<svg xmlns="http://www.w3.org/2000/svg" width="42" height="42"><defs><clipPath id="a"><path data-name="Rectangle 325" transform="translate(30 35)" fill="#fff" d="M0 0h42v42H0z"/></clipPath></defs><g transform="translate(-30 -35)" clip-path="url(#a)"><g data-name="Layer 2"><g data-name="Layer 1" fill="#fff"><path data-name="Path 838" d="M33 50.02a8.985 8.985 0 016.49-2.811c2.418-.006 4.853-.005 7.273-.002a1.469 1.469 0 11.026 2.933c-2.441.007-4.88-.007-7.32.013a5.89 5.89 0 10-.018 11.779q3.662.007 7.317.009a1.464 1.464 0 011.414.848 1.462 1.462 0 01-1.308 2.085c-2.546 0-5.092.046-7.642-.005a8.663 8.663 0 01-7.947-5.588A8.58 8.58 0 0133 50.021z"/><path data-name="Path 839" d="M69.331 49.79a8.837 8.837 0 01-6.214 15.089q-3.684.007-7.366 0a1.476 1.476 0 01-1.451-1.058 1.412 1.412 0 01.631-1.632 1.969 1.969 0 01.914-.232c2.42-.015 4.85.005 7.273-.022a5.891 5.891 0 00.026-11.781q-3.64-.016-7.275 0a1.511 1.511 0 01-1.497-.868 1.456 1.456 0 011.38-2.076q3.685-.007 7.375 0a7.7 7.7 0 013.648.82c.908.484 1.756 1.098 2.63 1.654z"/><path data-name="Path 840" d="M41.544 57.252a1.591 1.591 0 01-.46-1.755 1.367 1.367 0 011.263-.916c.447-.022.89-.006 1.336-.006q8.125-.003 16.252-.012a1.552 1.552 0 011.375.604 1.468 1.468 0 01-1.202 2.334q-2.563.009-5.113.005c-4.113 0-8.225.012-12.341-.012a4.219 4.219 0 01-1.11-.242z"/></g></g></g></svg>