<svg xmlns="http://www.w3.org/2000/svg" width="102" height="102"><defs><clipPath id="a"><path data-name="Rectangle 306" transform="translate(107.022 75.637)" fill="#fff" d="M0 0h102v102H0z"/></clipPath><clipPath id="b"><path data-name="Rectangle 306" transform="translate(1496 8.5)" fill="#fff" d="M0 0h102v102H0z"/></clipPath><clipPath id="c"><path data-name="Rectangle 9" transform="translate(4161.6 1210.4)" fill="#fff" d="M0 0h102v102H0z"/></clipPath></defs><g data-name="User info" transform="translate(-107.022 -75.637)" clip-path="url(#a)"><g data-name="User info" transform="translate(-1388.978 67.137)" clip-path="url(#b)"><g transform="translate(-2665.6 -1201.9)" clip-path="url(#c)"><g data-name="Layer 2"><g data-name="Layer 1" fill="#fff"><path data-name="Path 13" d="M4209.979 1312.4c-1.612-.184-3.224-.346-4.834-.567a49.83 49.83 0 0 1-17.056-5.411 53.55 53.55 0 0 1-20.448-19.04 3.258 3.258 0 0 1-.2-3.542 32.64 32.64 0 0 1 22.212-17.94c.8-.2 1.626-.314 2.437-.49a5.236 5.236 0 0 1 4.307 1.037 27.574 27.574 0 0 0 17.533 5.1 24.063 24.063 0 0 0 13.479-4.274 9.444 9.444 0 0 1 8.908-1.184 33.482 33.482 0 0 1 20.35 15.685c2.012 3.369 2.08 3.425-.085 6.681a52.734 52.734 0 0 1-20.893 18.545 51.476 51.476 0 0 1-20.057 5.267 4.391 4.391 0 0 0-.68.136Z"/><path data-name="Path 14" d="M4212.569 1263.383a26.5 26.5 0 1 1 26.489-26.52 26.5 26.5 0 0 1-26.489 26.52Z"/></g></g></g></g></g></svg>