<svg xmlns="http://www.w3.org/2000/svg" xmlns:xlink="http://www.w3.org/1999/xlink" width="36" height="36" viewBox="0 0 36 36">
  <defs>
    <clipPath id="clip-path">
      <rect id="Rectangle_306" data-name="Rectangle 306" width="36" height="36" transform="translate(0 3)" fill="#fff"/>
    </clipPath>
    <clipPath id="clip-path-2">
      <rect id="Rectangle_300" data-name="Rectangle 300" width="36" height="36" transform="translate(308.038 200.717)" fill="#fff"/>
    </clipPath>
  </defs>
  <g id="live" transform="translate(0 -3)" clip-path="url(#clip-path)">
    <g id="tv_live" data-name="tv live" transform="translate(-308.038 -197.717)" clip-path="url(#clip-path-2)">
      <g id="Layer_2" data-name="Layer 2" transform="translate(308.038 205.742)">
        <g id="Layer_1" data-name="Layer 1">
          <path id="Path_812" data-name="Path 812" d="M31.825,22.6c.5.662.937,1.254,1.38,1.846l.577.777c.167.225.192.455-.052.63a.4.4,0,0,1-.621-.133q-1.03-1.381-2.064-2.761c-.034-.048-.076-.091-.143-.17L29.5,23.9c-.112.089-.222.184-.34.267a.389.389,0,0,1-.577-.046.4.4,0,0,1,.06-.6c.3-.256.615-.5.923-.747.042-.034.08-.074.161-.151H6.259c.272.224.5.408.723.59.1.084.2.166.308.247.227.176.331.384.151.65-.151.218-.408.213-.69-.008-.442-.349-.88-.7-1.321-1.057-.1-.081-.208-.157-.34-.255-.212.277-.414.539-.613.8Q3.689,24.644,2.9,25.7c-.175.238-.39.34-.643.156s-.2-.429-.027-.659q.844-1.121,1.682-2.244c.068-.091.131-.192.225-.325-.162-.008-.277-.019-.39-.019H.624C.122,22.6,0,22.485,0,22V.6C0,.109.107,0,.588,0H35.414c.481,0,.586.11.586.6V22c0,.481-.123.6-.626.6C34.224,22.6,33.073,22.6,31.825,22.6ZM18,20.926H33.613c.635,0,.72-.087.72-.732V2.391c0-.645-.075-.721-.723-.721H2.387c-.643,0-.72.077-.72.724V20.161c0,.693.071.769.759.769Z" fill="#fff"/>
          <path id="Path_813" data-name="Path 813" d="M2.536,20.069V2.525h30.93V20.069ZM18,16.73A5.439,5.439,0,1,0,12.553,11.3,5.439,5.439,0,0,0,18,16.73Z" fill="#fff"/>
          <path id="Path_814" data-name="Path 814" d="M22.6,11.313a6.359,6.359,0,1,1-6.36-6.361,6.359,6.359,0,0,1,6.36,6.361ZM16.332,11.3c0,.791-.013,1.582.01,2.372a.618.618,0,0,0,.214.475.62.62,0,0,0,.52-.068c1.2-.776,2.377-1.569,3.562-2.363.4-.268.395-.57-.008-.841C19.456,10.085,18.284,9.3,17.1,8.53a.665.665,0,0,0-.546-.079c-.121.056-.206.308-.211.481-.022.785-.01,1.576-.01,2.367Z" fill="#fff"/>
          <path id="Path_815" data-name="Path 815" d="M17.173,13.021V9.575l2.588,1.72Z" fill="#fff"/>
        </g>
      </g>
    </g>
  </g>
</svg>
