<svg xmlns="http://www.w3.org/2000/svg" xmlns:xlink="http://www.w3.org/1999/xlink" width="36" height="36" viewBox="0 0 36 36">
  <defs>
    <clipPath id="clip-path">
      <rect id="Rectangle_306" data-name="Rectangle 306" width="36" height="36" transform="translate(0 3)" fill="#fff"/>
    </clipPath>
    <clipPath id="clip-path-2">
      <rect id="Rectangle_300" data-name="Rectangle 300" width="36" height="36" transform="translate(308.038 200.717)" fill="#fff"/>
    </clipPath>
  </defs>
  <g id="movies" transform="translate(0 -3)" clip-path="url(#clip-path)">
    <g id="movies-2" data-name="movies" transform="translate(-308.038 -197.717)" clip-path="url(#clip-path-2)">
      <g id="Layer_2" data-name="Layer 2" transform="translate(308.038 202.598)">
        <g id="Layer_1" data-name="Layer 1">
          <path id="Path_816" data-name="Path 816" d="M7.379,3.634H28.627V2.6a9.844,9.844,0,0,1,.029-1.05A1.7,1.7,0,0,1,30.314.015q2.012-.029,4.026,0A1.729,1.729,0,0,1,36,1.664v28.59a1.789,1.789,0,0,1-1.351,1.936,2.4,2.4,0,0,1-.539.051H30.52a1.767,1.767,0,0,1-1.9-1.9V29.49H7.38v.83a1.779,1.779,0,0,1-1.922,1.921c-1.2,0-2.37,0-3.555,0a1.753,1.753,0,0,1-1.9-1.9V1.9A1.767,1.767,0,0,1,1.9,0c1.18-.012,2.4,0,3.59,0A1.773,1.773,0,0,1,7.377,1.855C7.39,2.434,7.379,3.015,7.379,3.634ZM7.4,4.8v23.5H28.6V4.8ZM3.687,2.646c-.277,0-.557-.012-.833,0a.562.562,0,0,0-.593.555.57.57,0,0,0,.611.573q.815.018,1.63,0A.547.547,0,0,0,5.1,3.2a.553.553,0,0,0-.59-.557C4.243,2.634,3.965,2.646,3.687,2.646Zm28.6,1.136h.833a.574.574,0,0,0,.623-.564.565.565,0,0,0-.618-.569c-.543-.012-1.087-.014-1.628,0a.566.566,0,1,0,0,1.13c.259.012.525,0,.791,0Zm.021,3.69h.87a.568.568,0,0,0,.566-.585.546.546,0,0,0-.567-.54c-.567-.015-1.135-.014-1.7,0A.543.543,0,0,0,30.9,6.9a.549.549,0,0,0,.581.563c.277.017.555,0,.833,0ZM3.681,29.61c.277,0,.555.009.833,0a.565.565,0,0,0,.6-.551.557.557,0,0,0-.6-.579c-.554-.014-1.111-.015-1.664,0a.549.549,0,0,0-.581.564.56.56,0,0,0,.584.562c.272.014.551,0,.828,0Zm28.648,0h.836a.57.57,0,0,0,.584-.567.551.551,0,0,0-.584-.563c-.555-.017-1.111-.015-1.664,0a.566.566,0,1,0,0,1.13c.272.007.551,0,.828,0ZM3.713,6.339H2.88a.566.566,0,1,0,0,1.127c.543.011,1.087.014,1.628,0a.554.554,0,0,0,.6-.582.543.543,0,0,0-.6-.543C4.245,6.331,3.978,6.339,3.713,6.339ZM3.7,25.913c.277,0,.555.011.831,0a.554.554,0,0,0,.581-.563.53.53,0,0,0-.546-.557c-.577-.019-1.158-.019-1.736,0a.543.543,0,0,0-.566.567.565.565,0,0,0,.6.543c.279.017.558.007.836.007Zm28.6,0c.29,0,.579.011.869,0a.56.56,0,0,0,.579-.567.54.54,0,0,0-.554-.552q-.869-.029-1.738,0a.536.536,0,0,0-.557.582.552.552,0,0,0,.567.539c.277.009.555,0,.833,0ZM3.662,11.148H4.5a.659.659,0,0,0,.108-.011.538.538,0,0,0,.5-.6.518.518,0,0,0-.543-.518c-.577-.015-1.158-.012-1.736,0A.555.555,0,0,0,2.8,11.129a6.552,6.552,0,0,0,.859.019ZM32.3,10.031h-.8a.548.548,0,0,0-.6.536.533.533,0,0,0,.557.579c.567.021,1.135.019,1.7,0a.561.561,0,1,0-.024-1.118c-.282,0-.56,0-.836,0ZM3.693,21.107c-.29,0-.579-.009-.867,0a.554.554,0,1,0,0,1.106c.567.012,1.135.011,1.7,0a.543.543,0,0,0,.579-.558.535.535,0,0,0-.584-.551C4.248,21.1,3.971,21.107,3.693,21.107Zm28.635,1.114h0c.288,0,.579.011.867,0a.546.546,0,0,0,.551-.553.531.531,0,0,0-.546-.551c-.579-.015-1.158-.014-1.738,0a.527.527,0,0,0-.566.566.553.553,0,0,0,.6.543c.276,0,.554,0,.831,0ZM3.683,13.727c-.29,0-.581-.011-.869,0a.543.543,0,0,0-.552.548.534.534,0,0,0,.543.555c.59.015,1.183.017,1.772,0a.521.521,0,0,0,.533-.563.54.54,0,0,0-.559-.54C4.262,13.716,3.974,13.727,3.683,13.727Zm28.65,1.115h.759a.577.577,0,0,0,.072,0,.557.557,0,0,0,.582-.56.548.548,0,0,0-.581-.554c-.554-.011-1.109-.009-1.664,0a.546.546,0,0,0-.6.54.553.553,0,0,0,.6.573C31.777,14.857,32.055,14.842,32.332,14.842ZM3.7,18.526h.831a.549.549,0,0,0,.581-.56.538.538,0,0,0-.585-.551c-.567-.011-1.135-.012-1.7,0a.54.54,0,0,0-.564.572.548.548,0,0,0,.569.533C3.12,18.534,3.409,18.526,3.7,18.526Zm28.57,0h.9a.557.557,0,0,0,.573-.569.539.539,0,0,0-.562-.539c-.579-.012-1.158-.014-1.736,0a.53.53,0,0,0-.552.547.546.546,0,0,0,.577.56c.267.009.533,0,.794,0Z" fill="#fff"/>
          <path id="Path_817" data-name="Path 817" d="M26.654,16.6v7.653a1.914,1.914,0,0,1-2.1,2.118H11.458a1.908,1.908,0,0,1-2.1-2.116V8.874a1.912,1.912,0,0,1,2.1-2.119H24.55a1.91,1.91,0,0,1,2.1,2.118Q26.657,12.733,26.654,16.6Zm-11.774-.043v3.01a1.148,1.148,0,0,0,.609,1.109,1.126,1.126,0,0,0,1.261-.112c1.4-1.007,2.815-2,4.211-3.018a1.141,1.141,0,0,0-.011-1.972c-1.39-1.006-2.791-1.994-4.186-2.992a1.14,1.14,0,0,0-1.259-.133,1.166,1.166,0,0,0-.627,1.136c.006.99,0,1.982,0,2.973Z" fill="#fff"/>
        </g>
      </g>
    </g>
  </g>
</svg>
