<svg xmlns="http://www.w3.org/2000/svg" width="37" height="37"><defs><clipPath id="a"><path data-name="Rectangle 302" fill="#b6012c" d="M0 0h37v37H0z"/></clipPath></defs><g data-name="Layer 2" clip-path="url(#a)"><g data-name="Layer 1"><path data-name="Path 822" d="M34.512 36.999a3.608 3.608 0 01-1.519-1.106q-4.033-4.209-8.082-8.408c-.091-.095-.18-.192-.277-.3a14.791 14.791 0 01-12.922 2.028 14.416 14.416 0 01-8.079-6.022 14.916 14.916 0 0122-19.685 14.812 14.812 0 014.454 6.332 14.569 14.569 0 01.676 7.674 14.816 14.816 0 01-3.277 7.025l.51.541q4.08 4.24 8.159 8.483a1.934 1.934 0 01.118 2.831 5.241 5.241 0 01-1.04.61zM16.061 3.91a11.032 11.032 0 1011.03 11.029A11.054 11.054 0 0016.061 3.91z" fill="#b6012c"/></g></g></svg>