<svg xmlns="http://www.w3.org/2000/svg" width="36" height="36"><defs><clipPath id="a"><path data-name="Rectangle 306" transform="translate(0 3)" fill="#fff" d="M0 0h36v36H0z"/></clipPath><clipPath id="b"><path data-name="Rectangle 302" transform="translate(1157.838 25.297)" fill="#fff" d="M0 0h36v36H0z"/></clipPath></defs><g transform="translate(0 -3)" clip-path="url(#a)"><g data-name="search" transform="translate(-1157.838 -22.297)" clip-path="url(#b)"><g data-name="Layer 2"><g data-name="Layer 1"><path data-name="Path 822" d="M1190.961 61.296a3.51 3.51 0 01-1.478-1.076q-3.924-4.1-7.864-8.181a11.92 11.92 0 01-.27-.292 14.391 14.391 0 01-12.573 1.973 14.026 14.026 0 01-7.861-5.859 14.515 14.515 0 1125.738-12.992 14.175 14.175 0 01.658 7.467 14.416 14.416 0 01-3.188 6.835l.5.526q3.97 4.125 7.938 8.254a1.882 1.882 0 01.115 2.754 5.1 5.1 0 01-1.015.591zm-17.955-32.195a10.734 10.734 0 1010.732 10.733 10.734 10.734 0 00-10.732-10.733z" fill="#fff"/></g></g></g></g></svg>