<svg xmlns="http://www.w3.org/2000/svg" xmlns:xlink="http://www.w3.org/1999/xlink" width="36" height="36" viewBox="0 0 36 36">
  <defs>
    <clipPath id="clip-path">
      <rect id="Rectangle_306" data-name="Rectangle 306" width="36" height="36" transform="translate(0 3)" fill="#fff"/>
    </clipPath>
    <clipPath id="clip-path-2">
      <rect id="Rectangle_300" data-name="Rectangle 300" width="36" height="36" transform="translate(308.038 200.717)" fill="#fff"/>
    </clipPath>
  </defs>
  <g id="series" transform="translate(0 -3)" clip-path="url(#clip-path)">
    <g id="series-2" data-name="series" transform="translate(-308.038 -197.717)" clip-path="url(#clip-path-2)">
      <g id="Layer_2" data-name="Layer 2" transform="translate(308.041 205.128)">
        <g id="Layer_1" data-name="Layer 1">
          <path id="Path_818" data-name="Path 818" d="M36,2.973V24.2a3.9,3.9,0,0,1-.643,1.61,3.417,3.417,0,0,1-2.9,1.366q-14.461-.012-28.926,0H3.282A3.3,3.3,0,0,1,.006,23.8Q-.009,13.59,0,3.379A3.267,3.267,0,0,1,.653,1.345,3.457,3.457,0,0,1,3.566,0Q17.993.011,32.419,0a5.675,5.675,0,0,1,.6.023A3.278,3.278,0,0,1,35.2,1.176a3.718,3.718,0,0,1,.8,1.8ZM14.747,5.024a1.145,1.145,0,0,0-1.236,1.221q-.011,4.147,0,8.292a1.11,1.11,0,0,0,1.775,1.011q3.577-2.052,7.144-4.124a1.111,1.111,0,0,0,0-2.057Q18.867,7.3,15.288,5.246a3.434,3.434,0,0,0-.541-.222Zm-3.268,17H28.717a3.467,3.467,0,0,0,.421-.012,1.084,1.084,0,0,0,.963-.964,1.064,1.064,0,0,0-.747-1.167,2.377,2.377,0,0,0-.626-.054H11.49c-.276-.924-.595-1.252-1.183-1.238s-.9.35-1.139,1.239H7.037a1.072,1.072,0,0,0-1.045.631,1.094,1.094,0,0,0,1,1.562c.736.018,1.473,0,2.2,0,.131.81.475,1.187,1.067,1.218.643.034.973-.294,1.214-1.215Z" fill="#fff"/>
        </g>
      </g>
    </g>
  </g>
</svg>
